<svg width="20" height="26" viewBox="0 0 20 26" fill="none" xmlns="http://www.w3.org/2000/svg">
<path d="M10.0073 16.6449C10.4285 16.6449 10.8061 16.2963 10.8061 15.8751V3.89254L10.7335 2.22222L11.634 3.15177L13.464 5.06898C13.6093 5.22878 13.8126 5.3159 14.016 5.3159C14.4227 5.3159 14.7422 5.01089 14.7422 4.6042C14.7422 4.38635 14.655 4.22658 14.5098 4.08133L10.5882 0.261435C10.3849 0.0580931 10.2106 0 10.0073 0C9.80391 0 9.62963 0.0580931 9.42629 0.261435L5.49021 4.08133C5.34496 4.22658 5.2578 4.38635 5.2578 4.6042C5.2578 5.01089 5.56282 5.3159 5.98402 5.3159C6.17284 5.3159 6.3907 5.22878 6.53595 5.06898L8.366 3.15177L9.26652 2.2077L9.20843 3.89254V15.8751C9.20843 16.2963 9.57154 16.6449 10.0073 16.6449ZM3.45678 25.4757H16.5287C18.838 25.4757 20 24.3282 20 22.0624V10.5592C20 8.30791 18.838 7.14598 16.5287 7.14598H13.3333V8.75817H16.4996C17.6906 8.75817 18.3878 9.39723 18.3878 10.6463V21.9753C18.3878 23.2244 17.6906 23.8635 16.4996 23.8635H3.48584C2.28031 23.8635 1.61219 23.2244 1.61219 21.9753V10.6463C1.61219 9.39723 2.28031 8.75817 3.48584 8.75817H6.6812V7.14598H3.45678C1.16195 7.14598 0 8.2934 0 10.5592V22.0624C0 24.3282 1.16195 25.4757 3.45678 25.4757Z" fill="white" fill-opacity="0.84"/>
</svg>
