<svg width="100" height="100" viewBox="0 0 100 100" fill="none" xmlns="http://www.w3.org/2000/svg">
<rect width="100" height="100" rx="28" fill="#158C62"/>
<path d="M22.688 56.192C21.5467 56.192 20.512 55.9467 19.584 55.456C18.6667 54.9547 17.9413 54.2667 17.408 53.392C16.8853 52.5067 16.624 51.5093 16.624 50.4C16.624 49.2907 16.8853 48.2987 17.408 47.424C17.9413 46.5387 18.6667 45.8507 19.584 45.36C20.512 44.8587 21.552 44.608 22.704 44.608C23.6747 44.608 24.5493 44.7787 25.328 45.12C26.1173 45.4613 26.7787 45.952 27.312 46.592L25.648 48.128C24.8907 47.2533 23.952 46.816 22.832 46.816C22.1387 46.816 21.52 46.9707 20.976 47.28C20.432 47.5787 20.0053 48 19.696 48.544C19.3973 49.088 19.248 49.7067 19.248 50.4C19.248 51.0933 19.3973 51.712 19.696 52.256C20.0053 52.8 20.432 53.2267 20.976 53.536C21.52 53.8347 22.1387 53.984 22.832 53.984C23.952 53.984 24.8907 53.5413 25.648 52.656L27.312 54.192C26.7787 54.8427 26.1173 55.3387 25.328 55.68C24.5387 56.0213 23.6587 56.192 22.688 56.192ZM32.5445 56.128C31.6378 56.128 30.8218 55.9413 30.0965 55.568C29.3818 55.184 28.8218 54.656 28.4165 53.984C28.0112 53.312 27.8085 52.5493 27.8085 51.696C27.8085 50.8427 28.0112 50.08 28.4165 49.408C28.8218 48.736 29.3818 48.2133 30.0965 47.84C30.8218 47.456 31.6378 47.264 32.5445 47.264C33.4512 47.264 34.2618 47.456 34.9765 47.84C35.6912 48.2133 36.2512 48.736 36.6565 49.408C37.0618 50.08 37.2645 50.8427 37.2645 51.696C37.2645 52.5493 37.0618 53.312 36.6565 53.984C36.2512 54.656 35.6912 55.184 34.9765 55.568C34.2618 55.9413 33.4512 56.128 32.5445 56.128ZM32.5445 54.08C33.1845 54.08 33.7072 53.8667 34.1125 53.44C34.5285 53.0027 34.7365 52.4213 34.7365 51.696C34.7365 50.9707 34.5285 50.3947 34.1125 49.968C33.7072 49.5307 33.1845 49.312 32.5445 49.312C31.9045 49.312 31.3765 49.5307 30.9605 49.968C30.5445 50.3947 30.3365 50.9707 30.3365 51.696C30.3365 52.4213 30.5445 53.0027 30.9605 53.44C31.3765 53.8667 31.9045 54.08 32.5445 54.08ZM47.3813 56V50.848L44.8053 55.168H43.7493L41.2373 50.832V56H38.9813V47.392H41.5893L44.3413 52.368L47.2693 47.392H49.6053L49.6373 56H47.3813ZM56.0601 56.128C55.1535 56.128 54.3375 55.9413 53.6121 55.568C52.8975 55.184 52.3375 54.656 51.9321 53.984C51.5268 53.312 51.3241 52.5493 51.3241 51.696C51.3241 50.8427 51.5268 50.08 51.9321 49.408C52.3375 48.736 52.8975 48.2133 53.6121 47.84C54.3375 47.456 55.1535 47.264 56.0601 47.264C56.9668 47.264 57.7775 47.456 58.4921 47.84C59.2068 48.2133 59.7668 48.736 60.1721 49.408C60.5775 50.08 60.7801 50.8427 60.7801 51.696C60.7801 52.5493 60.5775 53.312 60.1721 53.984C59.7668 54.656 59.2068 55.184 58.4921 55.568C57.7775 55.9413 56.9668 56.128 56.0601 56.128ZM56.0601 54.08C56.7001 54.08 57.2228 53.8667 57.6281 53.44C58.0441 53.0027 58.2521 52.4213 58.2521 51.696C58.2521 50.9707 58.0441 50.3947 57.6281 49.968C57.2228 49.5307 56.7001 49.312 56.0601 49.312C55.4201 49.312 54.8921 49.5307 54.4761 49.968C54.0601 50.3947 53.8521 50.9707 53.8521 51.696C53.8521 52.4213 54.0601 53.0027 54.4761 53.44C54.8921 53.8667 55.4201 54.08 56.0601 54.08ZM62.4969 47.392H64.9769V50.752H68.7209V47.392H71.2169V56H68.7209V52.784H64.9769V56H62.4969V47.392ZM73.6063 47.392H76.0863V52.512L80.2783 47.392H82.5663V56H80.0863V50.88L75.9103 56H73.6063V47.392ZM74.9663 44.432H80.8863V45.84H74.9663V44.432Z" fill="white"/>
</svg>
