<svg width="18" height="11" viewBox="0 0 18 11" fill="none" xmlns="http://www.w3.org/2000/svg">
<path d="M17.2667 0.516667C17.1821 0.313042 17.0203 0.151229 16.8167 0.0666666C16.7165 0.0239658 16.6089 0.00131666 16.5 0H12.3334C12.1124 0 11.9004 0.0877975 11.7441 0.244078C11.5878 0.400358 11.5 0.61232 11.5 0.833333C11.5 1.05435 11.5878 1.26631 11.7441 1.42259C11.9004 1.57887 12.1124 1.66667 12.3334 1.66667H14.4917L9.83336 6.325L7.0917 3.575C7.01423 3.49689 6.92206 3.4349 6.82051 3.39259C6.71896 3.35028 6.61004 3.3285 6.50003 3.3285C6.39002 3.3285 6.2811 3.35028 6.17955 3.39259C6.078 3.4349 5.98583 3.49689 5.90836 3.575L0.908364 8.575C0.830257 8.65247 0.768262 8.74464 0.725954 8.84618C0.683647 8.94773 0.661865 9.05666 0.661865 9.16667C0.661865 9.27668 0.683647 9.3856 0.725954 9.48715C0.768262 9.5887 0.830257 9.68086 0.908364 9.75833C0.985833 9.83644 1.078 9.89844 1.17955 9.94074C1.2811 9.98305 1.39002 10.0048 1.50003 10.0048C1.61004 10.0048 1.71896 9.98305 1.82051 9.94074C1.92206 9.89844 2.01423 9.83644 2.0917 9.75833L6.50003 5.34167L9.2417 8.09167C9.31917 8.16977 9.41133 8.23177 9.51288 8.27408C9.61443 8.31638 9.72335 8.33816 9.83336 8.33816C9.94337 8.33816 10.0523 8.31638 10.1538 8.27408C10.2554 8.23177 10.3476 8.16977 10.425 8.09167L15.6667 2.84167V5C15.6667 5.22101 15.7545 5.43297 15.9108 5.58925C16.0671 5.74554 16.279 5.83333 16.5 5.83333C16.721 5.83333 16.933 5.74554 17.0893 5.58925C17.2456 5.43297 17.3334 5.22101 17.3334 5V0.833333C17.332 0.724436 17.3094 0.616852 17.2667 0.516667Z" fill="#F59548"/>
</svg>
